<mxfile host="app.diagrams.net" modified="2023-11-14T08:55:44.884Z" agent="Mozilla/5.0 (X11; Linux x86_64) AppleWebKit/537.36 (KHTML, like Gecko) Chrome/119.0.0.0 Safari/537.36" version="22.1.0" etag="z8hs-ASSloXpyB3C9qdQ" type="github">
  <diagram name="Page-1" id="VGDaxacwLjO5fH9c8Vpa">
    <mxGraphModel>
      <root>
        <mxCell id="0" />
        <mxCell id="1" parent="0" />
      </root>
    </mxGraphModel>
  </diagram>
</mxfile>
